<?xml version="1.0" encoding="UTF-8"?>
<svg id="Layer_1" data-name="Layer 1" xmlns="http://www.w3.org/2000/svg" viewBox="0 0 300.5 301">
  <defs>
    <style>
      .cls-1 {
        fill: none;
      }

      .cls-1, .cls-2 {
        stroke-width: 0px;
      }
    </style>
  </defs>
  <rect class="cls-1" x=".5" width="300" height="301"/>
  <path class="cls-2" d="M150,17.17c-36.24,0-65.62,29.38-65.62,65.62,0,29.3,42.89,82.71,59.32,102.09,3.33,3.93,9.28,3.93,12.6,0,16.43-19.39,59.32-72.79,59.32-102.09,0-36.24-29.38-65.62-65.62-65.62h0ZM150,104.67c-12.08,0-21.87-9.79-21.87-21.87s9.79-21.87,21.87-21.87,21.87,9.79,21.87,21.87-9.79,21.87-21.87,21.87ZM10.48,129.64C4.15,132.17,0,138.3,0,145.11v130.38c0,5.9,5.95,9.93,11.43,7.74l71.91-32.73v-121.4c-4.6-8.32-8.37-16.43-11.07-24.18l-61.79,24.71ZM150,204.49c-7.33,0-14.26-3.22-19.02-8.83-10.24-12.08-21.13-25.84-30.98-39.96v94.79l100,33.33v-128.12c-9.85,14.11-20.74,27.87-30.98,39.96-4.76,5.61-11.69,8.83-19.02,8.83h0ZM288.57,101.1l-71.91,32.73v150l72.85-29.14c6.33-2.53,10.48-8.66,10.48-15.47V108.84c0-5.9-5.95-9.93-11.43-7.74Z"/>
</svg>