<?xml version="1.0" encoding="UTF-8"?>
<svg id="Layer_1" data-name="Layer 1" xmlns="http://www.w3.org/2000/svg" viewBox="0 0 300 300">
  <defs>
    <style>
      .cls-1 {
        fill: none;
      }

      .cls-1, .cls-2 {
        stroke-width: 0px;
      }

      .cls-2 {
        fill: #f8c157;
      }
    </style>
  </defs>
  <path class="cls-2" d="M215.62,0H84.38c-15.53,0-28.12,12.6-28.12,28.12v243.75c0,15.53,12.6,28.12,28.12,28.12h131.25c15.53,0,28.12-12.6,28.12-28.12V28.13C243.75,12.6,231.15,0,215.63,0h-.01ZM150,281.25c-10.37,0-18.75-8.38-18.75-18.75s8.38-18.75,18.75-18.75,18.75,8.38,18.75,18.75-8.38,18.75-18.75,18.75ZM215.62,217.97c0,3.87-3.16,7.03-7.03,7.03h-117.19c-3.87,0-7.03-3.16-7.03-7.03V35.16c0-3.87,3.16-7.03,7.03-7.03h117.19c3.87,0,7.03,3.16,7.03,7.03v182.81Z"/>
  <rect class="cls-1" width="300" height="300"/>
</svg>