<?xml version="1.0" encoding="UTF-8"?>
<svg id="Layer_1" data-name="Layer 1" xmlns="http://www.w3.org/2000/svg" viewBox="0 0 300 300">
  <defs>
    <style>
      .cls-1 {
        fill: none;
      }

      .cls-1, .cls-2 {
        stroke-width: 0px;
      }

      .cls-2 {
        fill: #f8c157;
      }
    </style>
  </defs>
  <rect class="cls-1" width="300" height="300"/>
  <g>
    <path class="cls-2" d="M271.76,242.14h-31.76c-5.29-19.29-22.5-32.14-43.68-32.14-25.15,0-46.32,20.57-46.32,45s21.18,45,46.32,45c21.18,0,38.38-12.86,43.68-32.14h31.76c7.94,0,13.24-6.43,13.24-12.86,0-7.71-5.29-12.86-13.24-12.86h0ZM196.32,274.29c-10.59,0-19.85-9-19.85-19.29s9.27-19.29,19.85-19.29,19.85,9,19.85,19.29-9.27,19.29-19.85,19.29Z"/>
    <path class="cls-2" d="M122.23,240H27.77c-7.66,0-12.77,7.5-12.77,15,0,9,6.38,15,12.77,15h94.47c7.66,0,12.77-7.5,12.77-15,0-9-6.38-15-12.77-15h-.01Z"/>
    <path class="cls-2" d="M27.77,60h94.47c7.66,0,12.77-7.5,12.77-15s-6.38-15-12.77-15H27.77c-7.66,0-12.77,7.5-12.77,15s6.38,15,12.77,15Z"/>
    <path class="cls-2" d="M196.32,90c21.18,0,38.38-12.86,43.68-32.14h31.76c7.94,0,13.24-6.43,13.24-12.86s-6.62-12.86-13.24-12.86h-31.76C234.71,12.86,217.5,0,196.32,0c-25.15,0-46.32,20.57-46.32,45s21.18,45,46.32,45ZM196.32,25.71c10.59,0,19.85,9,19.85,19.29s-9.27,19.29-19.85,19.29-19.85-9-19.85-19.29,9.27-19.29,19.85-19.29Z"/>
    <path class="cls-2" d="M28.24,162.86h31.76c5.29,18,22.5,32.14,43.68,32.14,25.15,0,46.32-20.57,46.32-45s-21.18-45-46.32-45c-21.18,0-38.38,12.86-43.68,32.14h-31.76c-7.94,0-13.24,6.43-13.24,12.86s6.62,12.86,13.24,12.86ZM103.68,130.71c10.59,0,19.85,9,19.85,19.29s-9.26,19.29-19.85,19.29-19.85-9-19.85-19.29,9.26-19.29,19.85-19.29h0Z"/>
    <path class="cls-2" d="M272.1,135h-94.19c-7.74,0-12.9,7.5-12.9,15s6.45,15,12.9,15h94.19c7.74,0,12.9-7.5,12.9-15s-5.16-15-12.9-15Z"/>
  </g>
</svg>