<?xml version="1.0" encoding="UTF-8"?>
<svg id="Layer_1" data-name="Layer 1" xmlns="http://www.w3.org/2000/svg" viewBox="0 0 300 300">
  <defs>
    <style>
      .cls-1 {
        fill: none;
      }

      .cls-1, .cls-2 {
        stroke-width: 0px;
      }

      .cls-2 {
        fill: #f7c058;
      }
    </style>
  </defs>
  <rect class="cls-1" width="300" height="300"/>
  <path class="cls-2" d="M255,30H45C20.15,30,0,50.15,0,75v150c0,24.86,20.15,45,45,45h210c24.86,0,45-20.15,45-45V75c0-24.86-20.15-45-45-45ZM244.95,60l-94.95,71.25L55.05,60h189.9ZM255,240.01H45c-8.28,0-15-6.72-15-15V78.75l111,83.25c2.59,1.94,5.75,3,9,3s6.4-1.05,9-3l111-83.25v146.25c0,8.28-6.72,15-15,15h0Z"/>
</svg>