<?xml version="1.0" encoding="UTF-8"?>
<svg id="Layer_1" data-name="Layer 1" xmlns="http://www.w3.org/2000/svg" viewBox="0 0 300.47 300">
  <defs>
    <style>
      .cls-1 {
        fill: none;
      }

      .cls-1, .cls-2 {
        stroke-width: 0px;
      }
    </style>
  </defs>
  <path class="cls-2" d="M265.86,40.25c-6.51-4.21-14.69-4.91-21.83-1.87l-115.11,45.34c-2.73,1.11-5.64,1.68-8.58,1.68H46.64c-12.88,0-23.32,10.44-23.32,23.32v1.87H0v55.97h23.32v2.43c.3,12.66,10.66,22.76,23.32,22.76l27.99,59.33c3.87,8.15,12.06,13.37,21.08,13.43h11.75c12.81-.1,23.13-10.51,23.13-23.32v-47.2l113.43,45.34c2.79,1.11,5.77,1.68,8.77,1.68,4.66-.08,9.2-1.5,13.06-4.1,6.23-4.2,10.05-11.15,10.26-18.66V59.47c-.03-7.71-3.88-14.9-10.26-19.22ZM107.28,108.72v60.26h-60.63v-60.26h60.63ZM107.28,241.19h-11.75l-22.95-49.44h34.7v49.44ZM137.5,171.78c-2.22-1.13-4.52-2.07-6.9-2.8v-61.57c2.36-.49,4.66-1.17,6.9-2.05l115.3-45.9v158.21l-115.3-45.9ZM276.68,115.25v46.64c12.88,0,23.32-10.44,23.32-23.32s-10.44-23.32-23.32-23.32Z"/>
  <rect class="cls-1" x=".47" width="300" height="300"/>
</svg>