<?xml version="1.0" encoding="UTF-8"?>
<svg id="Layer_1" data-name="Layer 1" xmlns="http://www.w3.org/2000/svg" viewBox="0 0 300 303.24">
  <defs>
    <style>
      .cls-1, .cls-2, .cls-3 {
        fill: none;
      }

      .cls-1, .cls-4 {
        stroke-width: 0px;
      }

      .cls-2, .cls-3 {
        stroke: #333;
        stroke-width: 14px;
      }

      .cls-3 {
        stroke-linecap: round;
        stroke-linejoin: round;
      }

      .cls-4 {
        fill: #333;
      }
    </style>
  </defs>
  <rect class="cls-1" x="0" y="3.24" width="300" height="300"/>
  <g>
    <g>
      <path class="cls-2" d="M158,55.13c3.78-4.32,12.67-9.75,25.32-15.56,12.28-5.65,26.97-11.18,41.21-16.06,14.21-4.87,27.82-9.06,37.9-12.03,2.06-.61,3.98-1.16,5.72-1.67-.34,1.98-.73,4.19-1.15,6.58-1.91,10.75-4.61,25.25-7.8,40.29-3.19,15.07-6.85,30.56-10.64,43.33-1.9,6.39-3.8,11.98-5.66,16.45-1.92,4.63-3.56,7.44-4.72,8.77-1.98,2.27-6.32,4.12-13.79,4.62-7.17.48-15.71-.38-24.16-1.87-8.38-1.47-16.34-3.5-22.23-5.16-2.93-.83-5.34-1.57-6.99-2.09-.01,0-.03,0-.04-.01-.82-1.44-1.98-3.53-3.31-6.09-2.71-5.22-6.09-12.35-8.87-20.09-2.8-7.8-4.85-15.87-5.16-23.06-.31-7.22,1.17-12.66,4.39-16.35Z"/>
      <path class="cls-3" d="M230.05,49.58s-65.37,56.34-86.68,119.31"/>
      <path class="cls-2" d="M109.87,85.43c-2.52-2.91-8.77-6.84-18.17-11.2-9.03-4.2-19.87-8.32-30.4-11.97-10.51-3.64-20.59-6.77-28.05-9-.48-.14-.94-.28-1.39-.41.12.67.24,1.37.37,2.09,1.41,8.05,3.42,18.91,5.78,30.16,2.37,11.28,5.07,22.85,7.87,32.36,1.4,4.76,2.79,8.89,4.14,12.16,1.41,3.44,2.54,5.32,3.2,6.09.97,1.13,3.54,2.46,8.94,2.82,5.1.34,11.26-.28,17.47-1.38,6.14-1.09,11.98-2.59,16.31-3.83,1.79-.51,3.31-.98,4.47-1.34.56-1.01,1.28-2.33,2.08-3.89,1.99-3.87,4.46-9.14,6.49-14.85,2.05-5.77,3.51-11.64,3.73-16.79.22-5.18-.85-8.75-2.82-11.03Z"/>
      <path class="cls-3" d="M63.23,86.3s42.98,36.13,55.19,78.61"/>
    </g>
    <path class="cls-4" d="M89.74,183.3l3.91,8.74-3.91-8.74ZM56.38,195.57h-9.57v13.51l12.75-4.48-3.17-9.03ZM116.25,183.3l2.06-9.35-.17-.04-.17-.03-1.72,9.42ZM170.99,195.35l2.87-9.13-.4-.13-.41-.09-2.06,9.35ZM194.08,222.89l5.5,7.84-5.5-7.84ZM179.26,228.58l.5-9.56h-.19s-.19-.01-.19-.01l-.11,9.57ZM135.07,228.05l.11-9.57-1.8,19,1.69-9.43ZM188.1,235.8l.56-9.56-.56,9.56ZM222.21,225.46l3.58,8.88-3.58-8.88ZM264.21,211.7l1.53,9.45-1.53-9.45ZM286.45,239.24l6.79,6.75-6.79-6.75ZM197.5,284.86l-3.24-9.01,3.24,9.01ZM163.99,285.84l.94-9.53-.94,9.53ZM153.03,284.86l.71-9.55-.71,9.55ZM115.36,276.65l-2.85,9.14,2.85-9.14ZM75.2,268.5l.38-9.57-.38,9.57ZM56.38,268.83l-.33-9.57-9.25.32v9.25h9.57ZM56.38,287.09v9.57h9.57v-9.57h-9.57ZM9.57,287.09H0v9.57h9.57v-9.57ZM9.57,181.77v-9.57H0v9.57h9.57ZM56.38,181.77h9.57v-9.57h-9.57v9.57ZM85.83,174.56c-4.42,1.98-20.73,7.8-32.62,11.98l6.35,18.07c11.4-4.01,28.74-10.17,34.09-12.56l-7.82-17.48ZM116.25,183.3q1.72-9.42,1.72-9.42s0,0,0,0c0,0,0,0,0,0,0,0-.01,0-.02,0-.02,0-.03,0-.06-.01-.05,0-.11-.02-.2-.04-.17-.03-.4-.07-.7-.12-.59-.1-1.42-.23-2.44-.37-2.03-.29-4.84-.64-7.94-.88-3.07-.23-6.6-.37-10.02-.17-3.23.18-7.23.7-10.76,2.27l7.82,17.48c.33-.15,1.56-.49,4.02-.63,2.27-.13,4.89-.05,7.49.15,2.57.2,4.94.49,6.68.74.87.12,1.56.23,2.03.31.23.04.41.07.52.09.06,0,.1.02.12.02.01,0,.02,0,.02,0h0s0,0,0,0h0s0,0,1.72-9.42ZM173.05,186l-54.74-12.05-4.12,18.7,54.74,12.05,4.12-18.7ZM197.5,190.07c-5.46,0-11.35-.93-16.06-1.94-2.31-.5-4.25-.99-5.6-1.36-.67-.18-1.19-.33-1.53-.43-.17-.05-.29-.09-.37-.11-.04-.01-.06-.02-.08-.02,0,0-.01,0-.01,0,0,0,0,0,0,0,0,0,0,0,0,0,0,0,0,0,0,0t-2.87,9.13q-2.87,9.13-2.87,9.13s0,0,0,0c0,0,0,0,0,0,0,0,.01,0,.02,0,.01,0,.03,0,.05.02.04.01.09.03.16.05.13.04.31.09.54.16.46.13,1.11.32,1.92.54,1.62.44,3.9,1.02,6.62,1.6,5.34,1.14,12.71,2.36,20.07,2.36v-19.15ZM199.58,230.73c6.14-4.3,11.51-12,13.48-19.18.96-3.51,1.64-8.84-1.1-13.77-3.19-5.73-9.07-7.7-14.45-7.7v19.15c.58,0,.35.1-.27-.2-.73-.35-1.51-1.02-2.01-1.94-.84-1.51-.21-2.16-.63-.61-.34,1.24-1.15,2.97-2.39,4.74-1.24,1.77-2.58,3.1-3.61,3.82l10.99,15.68ZM179.26,228.58q-.5,9.56-.49,9.56h0s.01,0,.02,0c.01,0,.03,0,.04,0,.03,0,.06,0,.09,0,.07,0,.14,0,.21,0,.16,0,.34,0,.54,0,.41,0,.92-.03,1.52-.08,1.2-.11,2.76-.34,4.61-.8,3.71-.95,8.49-2.84,13.76-6.54l-10.99-15.68c-3.31,2.32-5.94,3.27-7.5,3.66-.79.2-1.33.27-1.56.29-.12.01-.16,0-.13,0,.02,0,.06,0,.12,0,.03,0,.07,0,.11,0,.02,0,.04,0,.06,0,.01,0,.02,0,.04,0,0,0,.01,0,.02,0,0,0,0,0,0,0t-.49,9.56ZM134.95,237.62l44.19.52.23-19.15-44.19-.52-.23,19.15ZM188.66,226.24c-6.71-.4-19.48-2.25-31.02-4.09-5.67-.91-10.9-1.79-14.71-2.44-1.9-.33-3.45-.6-4.52-.79-.54-.09-.95-.17-1.23-.22-.14-.02-.25-.04-.32-.06-.04,0-.06-.01-.08-.01,0,0-.02,0-.02,0h0s0,0,0,0l-1.69,9.43q-1.69,9.43-1.69,9.43h0s0,0,0,0c0,0,.01,0,.02,0,.02,0,.05,0,.09.02.08.01.19.03.33.06.29.05.72.13,1.26.22,1.09.19,2.66.47,4.59.8,3.86.66,9.16,1.56,14.93,2.48,11.34,1.81,25.08,3.84,32.91,4.3l1.13-19.12ZM218.64,216.58c-7.14,2.88-13.52,5.44-19.02,7.25-5.79,1.91-9.26,2.51-10.96,2.41l-1.13,19.12c5.66.34,12.19-1.39,18.09-3.34,6.2-2.04,13.19-4.86,20.17-7.67l-7.15-17.76ZM262.68,202.25c-14.35,2.33-30.59,8.92-44.04,14.33l7.15,17.76c14.05-5.66,28.15-11.28,39.96-13.2l-3.07-18.9ZM293.24,245.99c7.59-7.64,8.71-20.24,3.73-29.79-5.65-10.81-17.94-16.6-34.29-13.95l3.07,18.9c10.16-1.65,13.26,2.03,14.25,3.91,1.64,3.14.63,6.46-.34,7.43l13.58,13.5ZM200.74,293.87c6.6-2.37,27.2-11.89,46.78-21.63,9.9-4.93,19.77-10.03,27.76-14.47,3.98-2.22,7.59-4.32,10.52-6.19,2.72-1.73,5.54-3.68,7.44-5.58l-13.58-13.5s-.07.07-.28.24c-.21.17-.49.39-.86.67-.75.55-1.75,1.22-2.99,2.02-2.49,1.59-5.73,3.48-9.55,5.61-7.62,4.24-17.21,9.2-26.98,14.06-19.76,9.84-39.36,18.82-44.73,20.76l6.48,18.02ZM163.05,295.37c12.11,1.19,25.87,2.74,37.7-1.51l-6.48-18.02c-6.92,2.49-15.86,1.8-29.34.47l-1.88,19.06ZM152.32,294.4c3.62.27,7.17.62,10.73.97l1.88-19.06c-3.53-.35-7.3-.72-11.19-1.01l-1.42,19.1ZM112.5,285.8c11.31,3.53,23.66,7.41,39.82,8.61l1.42-19.1c-13.74-1.02-24.23-4.27-35.53-7.79l-5.7,18.28ZM74.82,278.07c14.66.58,25.58,3.95,37.68,7.73l5.7-18.28c-12.13-3.78-25.19-7.89-42.63-8.58l-.76,19.13ZM56.71,278.4c7.72-.27,15.19-.45,18.11-.33l.76-19.13c-3.79-.15-12.09.07-19.52.33l.66,19.14ZM46.81,268.83v18.25h19.15v-18.25h-19.15ZM56.38,277.51H9.57v19.15h46.81v-19.15ZM19.15,287.09v-105.32H0v105.32h19.15ZM9.57,191.34h46.81v-19.15H9.57v19.15ZM46.81,181.77v13.8h19.15v-13.8h-19.15Z"/>
  </g>
</svg>