<?xml version="1.0" encoding="UTF-8"?>
<svg id="Layer_1" data-name="Layer 1" xmlns="http://www.w3.org/2000/svg" viewBox="0 0 300 300">
  <defs>
    <style>
      .cls-1 {
        stroke-width: 0px;
      }

      .cls-1, .cls-2 {
        fill: none;
      }

      .cls-2 {
        stroke: #f8c157;
        stroke-miterlimit: 8;
        stroke-width: 25px;
      }
    </style>
  </defs>
  <rect class="cls-1" width="300" height="300"/>
  <g>
    <path class="cls-2" d="M30.78,89.07v-50.34c0-4.39,3.56-7.95,7.95-7.95h76.83c4.39,0,7.95,3.56,7.95,7.95v50.34c0,4.39-3.56,7.95-7.95,7.95H38.73c-4.39,0-7.95-3.56-7.95-7.95Z"/>
    <path class="cls-2" d="M176.49,261.27v-50.34c0-4.39,3.56-7.95,7.95-7.95h76.83c4.39,0,7.95,3.56,7.95,7.95v50.34c0,4.39-3.56,7.95-7.95,7.95h-76.83c-4.39,0-7.95-3.56-7.95-7.95h0Z"/>
    <path class="cls-2" d="M176.49,155.3V38.73c0-4.39,3.56-7.95,7.95-7.95h76.83c4.39,0,7.95,3.56,7.95,7.95v116.57c0,4.39-3.56,7.95-7.95,7.95h-76.83c-4.39,0-7.95-3.56-7.95-7.95h0Z"/>
    <path class="cls-2" d="M30.78,261.27v-116.57c0-4.39,3.56-7.95,7.95-7.95h76.83c4.39,0,7.95,3.56,7.95,7.95v116.57c0,4.39-3.56,7.95-7.95,7.95H38.73c-4.39,0-7.95-3.56-7.95-7.95Z"/>
  </g>
</svg>