<?xml version="1.0" encoding="UTF-8"?>
<svg id="Layer_1" data-name="Layer 1" xmlns="http://www.w3.org/2000/svg" viewBox="0 0 972.8 836.27">
  <defs>
    <style>
      .cls-1 {
        stroke-width: 0px;
      }
    </style>
  </defs>
  <path class="cls-1" d="M136.53,448H59.73c-29.87,0-51.2,21.33-51.2,51.2v273.07c0,29.87,21.33,51.2,51.2,51.2h76.8c29.87,0,51.2-21.33,51.2-51.2v-273.07c0-25.6-21.33-51.2-51.2-51.2h0ZM145.07,772.27c0,4.27-4.27,8.53-8.53,8.53H59.73c-4.27,0-8.53-4.27-8.53-8.53v-273.07c0-4.27,4.27-8.53,8.53-8.53h76.8c4.27,0,8.53,4.27,8.53,8.53v273.07ZM396.8,401.07h-76.8c-29.87,0-51.2,21.33-51.2,51.2v328.53c0,29.87,21.33,51.2,51.2,51.2h76.8c29.87,0,51.2-21.33,51.2-51.2v-332.8c0-25.6-21.33-46.93-51.2-46.93ZM405.33,776.53c0,4.27-4.27,8.53-8.53,8.53h-76.8c-4.27,0-8.53-4.27-8.53-8.53v-328.53c0-4.27,4.27-8.53,8.53-8.53h76.8c4.27,0,8.53,4.27,8.53,8.53v328.53ZM657.07,349.87h-76.8c-29.87,0-51.2,21.33-51.2,51.2v384c0,29.87,21.33,51.2,51.2,51.2h76.8c29.87,0,51.2-21.33,51.2-51.2v-384c0-29.87-25.6-51.2-51.2-51.2ZM665.6,785.07c0,4.27-4.27,8.53-8.53,8.53h-76.8c-4.27,0-8.53-4.27-8.53-8.53v-384c0-4.27,4.27-8.53,8.53-8.53h76.8c4.27,0,8.53,4.27,8.53,8.53v384ZM917.33,298.67h-76.8c-29.87,0-51.2,21.33-51.2,51.2v430.93c0,29.87,21.33,51.2,51.2,51.2h76.8c29.87,0,51.2-21.33,51.2-51.2v-430.93c0-25.6-25.6-51.2-51.2-51.2ZM925.87,780.8c0,4.27-4.27,8.53-8.53,8.53h-76.8c-4.27,0-8.53-4.27-8.53-8.53v-430.93c0-4.27,4.27-8.53,8.53-8.53h76.8c4.27,0,8.53,4.27,8.53,8.53v430.93ZM951.47,0S947.2,0,951.47,0Q947.2,0,951.47,0h-102.4c-12.8,0-21.33,8.53-21.33,21.33s8.53,21.33,21.33,21.33h42.67C622.93,192,328.53,277.33,21.33,294.4c-12.8,0-21.33,12.8-21.33,21.33,0,12.8,8.53,21.33,21.33,21.33,324.27-17.07,627.2-106.67,908.8-264.53v42.67c0,12.8,8.53,21.33,21.33,21.33s21.33-8.53,21.33-21.33V17.07c0-8.53-8.53-17.07-21.33-17.07h0Z"/>
  <rect class="cls-1" x="824.67" y="319.33" width="109" height="486"/>
  <rect class="cls-1" x="557.67" y="374.33" width="129" height="442"/>
  <rect class="cls-1" x="297.67" y="418.33" width="118" height="375.27"/>
  <rect class="cls-1" x="30.67" y="478.33" width="131.2" height="315.27"/>
</svg>