<?xml version="1.0" encoding="UTF-8"?>
<svg id="Layer_1" data-name="Layer 1" xmlns="http://www.w3.org/2000/svg" viewBox="0 0 300 300.01">
  <defs>
    <style>
      .cls-1, .cls-2 {
        stroke-width: 0px;
      }

      .cls-1, .cls-3 {
        fill: none;
      }

      .cls-2 {
        fill: #f8c157;
      }

      .cls-3 {
        stroke: #fc6;
        stroke-linecap: round;
        stroke-linejoin: round;
        stroke-width: 6px;
      }
    </style>
  </defs>
  <rect class="cls-1" width="300" height="300"/>
  <path class="cls-2" d="M234.38,225c20.71,0,37.5-16.78,37.5-37.5s-16.79-37.5-37.5-37.5-37.5,16.78-37.5,37.5,16.78,37.5,37.5,37.5ZM260.63,234.38h-4.89c-6.5,2.99-13.74,4.69-21.36,4.69s-14.83-1.7-21.35-4.69h-4.9c-21.74,0-39.38,17.64-39.38,39.38v12.19c0,7.76,6.3,14.06,14.06,14.06h103.12c7.76,0,14.06-6.3,14.06-14.06v-12.19c0-21.74-17.64-39.38-39.38-39.38h.02Z"/>
  <path class="cls-2" d="M65.62,75c20.71,0,37.5-16.78,37.5-37.5S86.34,0,65.62,0,28.12,16.78,28.12,37.5s16.78,37.5,37.5,37.5ZM91.88,84.38h-4.89c-6.5,2.99-13.74,4.69-21.36,4.69s-14.83-1.7-21.35-4.69h-4.9C17.64,84.38,0,102.01,0,123.75v12.19c0,7.76,6.3,14.06,14.06,14.06h103.12c7.76,0,14.06-6.3,14.06-14.06v-12.19c0-21.74-17.64-39.38-39.38-39.38h.02Z"/>
  <g>
    <path class="cls-3" d="M226.99,106.07l31.89-3.11-3.11-31.89"/>
    <path class="cls-3" d="M209.86,62.67l48.52,39.89"/>
  </g>
  <g>
    <path class="cls-3" d="M73,212.68l-31.89,3.11,3.11,31.89"/>
    <path class="cls-3" d="M90.13,256.08l-48.52-39.89"/>
  </g>
</svg>