<?xml version="1.0" encoding="UTF-8"?>
<svg id="Layer_1" data-name="Layer 1" xmlns="http://www.w3.org/2000/svg" viewBox="0 0 305 300">
  <defs>
    <style>
      .cls-1 {
        fill: #fc6;
        stroke: #fc6;
        stroke-miterlimit: 10;
        stroke-width: 5px;
      }

      .cls-2 {
        fill: none;
        stroke-width: 0px;
      }
    </style>
  </defs>
  <rect class="cls-2" x="2.5" width="300" height="300"/>
  <g>
    <circle class="cls-1" cx="151.56" cy="150" r="21.21"/>
    <path class="cls-1" d="M281.29,128.79c-7.48,0-14.35,4.37-18.09,9.98h-22.45c-5.61-44.28-43.04-78.59-89.19-78.59s-83.58,34.3-89.19,78.59h-20.58c-3.74-6.24-10.6-9.98-18.09-9.98-11.85,0-21.21,9.36-21.21,21.21s9.36,21.21,21.21,21.21c7.48,0,13.72-3.74,17.46-9.98h21.83c5.61,44.28,43.66,78.59,89.19,78.59s82.95-34.3,89.19-78.59h22.45c3.74,5.61,9.98,9.98,17.46,9.98,11.85,0,21.21-9.36,21.21-21.21s-9.36-21.21-21.21-21.21ZM152.19,209.88c-33.06,0-59.88-26.82-59.88-59.88s26.82-59.88,59.88-59.88,59.88,26.82,59.88,59.88-27.44,59.88-59.88,59.88Z"/>
  </g>
</svg>