<?xml version="1.0" encoding="utf-8"?>
<!-- Generator: Adobe Illustrator 28.1.0, SVG Export Plug-In . SVG Version: 6.00 Build 0)  -->
<svg version="1.1" id="Layer_1" xmlns="http://www.w3.org/2000/svg" xmlns:xlink="http://www.w3.org/1999/xlink" x="0px" y="0px"
	 viewBox="0 0 300 300" style="enable-background:new 0 0 300 300;" xml:space="preserve">
<style type="text/css">
	.st0{fill:#F7C058;}
	.st1{fill:none;}
</style>
<path class="st0" d="M150,11.7c-82.8,0-150,67.2-150,150c0,26.3,6.9,52.2,20.1,75c4.1,7.2,13.3,9.7,20.5,5.6s9.7-13.3,5.5-20.6l0,0
	c-10.6-18.2-16.2-38.9-16.2-60c0-66.3,53.8-120,120-119.9c66.3,0,120,53.8,119.9,120c0,21-5.5,41.7-16.1,59.9
	c-4.1,7.2-1.7,16.4,5.5,20.5c0,0,0.1,0,0.1,0.1c7.2,4.1,16.3,1.6,20.4-5.6C321.3,165,296.7,73.2,225,31.8
	C202.2,18.6,176.3,11.7,150,11.7L150,11.7z M192.6,98.1l-23.2,23.1c-6-3-12.6-4.5-19.4-4.5c-24.8,0-45,20.1-45,45s20.2,45,45,45
	s45-20.1,45-45c0-6.7-1.6-13.2-4.5-19.2l23.2-23.1c5.9-5.8,5.9-15.3,0.1-21.2c0,0-0.1-0.1-0.1-0.1C207.9,92.3,198.4,92.3,192.6,98.1
	L192.6,98.1L192.6,98.1z M150,176.7c-8.3,0-15-6.7-15-15s6.7-15,15-15c3.9,0,7.7,1.5,10.5,4.2c2.9,2.8,4.5,6.7,4.5,10.8
	C165,170,158.3,176.7,150,176.7L150,176.7z"/>
<rect class="st1" width="300" height="300"/>
</svg>
