<?xml version="1.0" encoding="UTF-8"?>
<svg id="Layer_1" data-name="Layer 1" xmlns="http://www.w3.org/2000/svg" viewBox="0 0 300 301">
  <defs>
    <style>
      .cls-1 {
        fill: none;
      }

      .cls-1, .cls-2 {
        stroke-width: 0px;
      }
    </style>
  </defs>
  <rect class="cls-1" width="300" height="301"/>
  <path class="cls-2" d="M236.55,66.5v-6.34c0-25.55-23.74-44.94-48.66-38.41-15.02-29-55.13-27.8-69.13.44-24.19-6.19-48.28,12.26-48.28,38.08v73.9c-11.69-4.35-25.38-2.97-36.38,5.2-17.2,12.77-20.97,37.11-8.53,54.58l70.29,98.68c3.52,4.94,9.21,7.87,15.27,7.87h130.6c8.73,0,16.31-6.03,18.27-14.54l17.69-76.73c2.02-8.78,3.04-17.75,3.04-26.76v-77.09c0-23.8-20.81-42.18-44.2-38.88h0ZM252.62,182.47c0,6.87-.78,13.75-2.32,20.44l-16.01,69.46h-118.31l-67.5-94.74c-8.46-11.88,8.8-25.06,17.22-13.25l15.9,22.31c5.27,7.4,17.01,3.68,17.01-5.44V60.27c0-15.03,21.43-14.54,21.43.4v89.83c0,5.18,4.2,9.37,9.37,9.37h4.02c5.18,0,9.37-4.2,9.37-9.37V39.76c0-15.04,21.43-14.54,21.43.4v110.34c0,5.18,4.2,9.37,9.37,9.37h4.02c5.18,0,9.37-4.2,9.37-9.37V59.75c0-15.04,21.43-14.54,21.43.4v90.34c0,5.18,4.2,9.37,9.37,9.37h4.02c5.18,0,9.37-4.2,9.37-9.37v-44.71c0-15.38,21.43-15.02,21.43-.4v77.09h0Z"/>
</svg>