<?xml version="1.0" encoding="UTF-8"?>
<svg id="Layer_1" data-name="Layer 1" xmlns="http://www.w3.org/2000/svg" viewBox="0 0 300 300">
  <defs>
    <style>
      .cls-1 {
        fill: none;
      }

      .cls-1, .cls-2 {
        stroke-width: 0px;
      }

      .cls-2 {
        fill: #f8c157;
      }
    </style>
  </defs>
  <rect class="cls-1" width="300" height="300"/>
  <path class="cls-2" d="M150,150c41.43,0,75-33.57,75-75S191.43,0,150,0s-75,33.57-75,75,33.57,75,75,75ZM202.5,168.75h-9.79c-13.01,5.98-27.48,9.38-42.71,9.38s-29.65-3.4-42.71-9.38h-9.79c-43.48,0-78.75,35.27-78.75,78.75v24.38c0,15.53,12.6,28.12,28.12,28.12h206.25c15.53,0,28.12-12.6,28.12-28.12v-24.38c0-43.48-35.27-78.75-78.75-78.75h.01Z"/>
</svg>