<?xml version="1.0" encoding="UTF-8"?>
<svg id="Layer_1" data-name="Layer 1" xmlns="http://www.w3.org/2000/svg" viewBox="0 0 300 300">
  <defs>
    <style>
      .cls-1 {
        fill: none;
      }

      .cls-1, .cls-2 {
        stroke-width: 0px;
      }

      .cls-2 {
        fill: #f8c157;
      }
    </style>
  </defs>
  <rect class="cls-1" width="300" height="300"/>
  <g>
    <rect class="cls-2" y="75" width="90" height="150" rx="15" ry="15"/>
    <rect class="cls-2" x="210" width="90" height="90" rx="15" ry="15"/>
    <rect class="cls-2" x="210" y="105" width="90" height="90" rx="15" ry="15"/>
    <rect class="cls-2" x="210" y="210" width="90" height="90" rx="15" ry="15"/>
    <path class="cls-2" d="M195,52.5v-15c0-4.14-3.36-7.5-7.5-7.5h-45c-4.14,0-7.5,3.36-7.5,7.5v97.5h-22.5c-4.14,0-7.5,3.36-7.5,7.5v15c0,4.14,3.36,7.5,7.5,7.5h22.5v97.5c0,4.14,3.36,7.5,7.5,7.5h45c4.14,0,7.5-3.36,7.5-7.5v-15c0-4.14-3.36-7.5-7.5-7.5h-22.5v-75h22.5c4.14,0,7.5-3.36,7.5-7.5v-15c0-4.14-3.36-7.5-7.5-7.5h-22.5V60h22.5c4.14,0,7.5-3.36,7.5-7.5Z"/>
  </g>
</svg>